{"accessors":[{"bufferView":0,"byteOffset":0,"componentType":5126,"count":270,"max":[0.5,1.8,0.7],"min":[-0.5,0,-0.7],"normalized":false,"type":"VEC3"},{"bufferView":1,"byteOffset":0,"componentType":5126,"count":270,"max":[1,0.000083,1,1],"min":[-1,-0.000037,-1,-1],"normalized":false,"type":"VEC4"},{"bufferView":2,"byteOffset":0,"componentType":5126,"count":270,"max":[1,1,1],"min":[-1,-1,-1],"normalized":false,"type":"VEC3"},{"bufferView":3,"byteOffset":0,"componentType":5126,"count":270,"max":[0.34374,0.97499],"min":[0.093736,0.680552],"normalized":false,"type":"VEC2"},{"bufferView":4,"byteOffset":0,"componentType":5125,"count":396,"max":[269],"min":[0],"normalized":false,"type":"SCALAR"},{"bufferView":5,"byteOffset":0,"componentType":5126,"count":79,"max":[0.4,0.2,0.346],"min":[-0.4,0,-0.346],"normalized":false,"type":"VEC3"},{"bufferView":6,"byteOffset":0,"componentType":5126,"count":79,"max":[1,0.022934,1,1],"min":[-1,-0.035671,-0.925873,1],"normalized":false,"type":"VEC4"},{"bufferView":7,"byteOffset":0,"componentType":5126,"count":79,"max":[0.925873,1,0.953752],"min":[-1,-1,-1],"normalized":false,"type":"VEC3"},{"bufferView":8,"byteOffset":0,"componentType":5126,"count":79,"max":[0.218738,0.724987],"min":[0.218738,0.524987],"normalized":false,"type":"VEC2"},{"bufferView":9,"byteOffset":0,"componentType":5125,"count":72,"max":[41],"min":[0],"normalized":false,"type":"SCALAR"},{"bufferView":10,"byteOffset":0,"componentType":5126,"count":79,"max":[0.4,0.2,0.346],"min":[-0.4,0,-0.346],"normalized":false,"type":"VEC3"},{"bufferView":11,"byteOffset":0,"componentType":5126,"count":79,"max":[1,0.022934,1,1],"min":[-1,-0.035671,-0.925873,1],"normalized":false,"type":"VEC4"},{"bufferView":12,"byteOffset":0,"componentType":5126,"count":79,"max":[0.925873,1,0.953752],"min":[-1,-1,-1],"normalized":false,"type":"VEC3"},{"bufferView":13,"byteOffset":0,"componentType":5126,"count":79,"max":[0.218738,0.724987],"min":[0.218738,0.524987],"normalized":false,"type":"VEC2"},{"bufferView":14,"byteOffset":0,"componentType":5125,"count":72,"max":[41],"min":[0],"normalized":false,"type":"SCALAR"},{"bufferView":15,"byteOffset":0,"componentType":5126,"count":4,"max":[0.499995,0,0.5],"min":[-0.5,0,-0.5],"normalized":false,"type":"VEC3"},{"bufferView":16,"byteOffset":0,"componentType":5126,"count":4,"max":[-1,-0.00003,-0.000031,1],"min":[-1,-0.00003,-0.000031,1],"normalized":false,"type":"VEC4"},{"bufferView":17,"byteOffset":0,"componentType":5126,"count":4,"max":[-0.00003,1,0],"min":[-0.00003,1,0],"normalized":false,"type":"VEC3"},{"bufferView":18,"byteOffset":0,"componentType":5126,"count":4,"max":[0.156237,0.874998],"min":[0.156237,0.874998],"normalized":false,"type":"VEC2"},{"bufferView":19,"byteOffset":0,"componentType":5125,"count":6,"max":[3],"min":[0],"normalized":false,"type":"SCALAR"}],"asset":{"generator":"Godot Engine v4.2.stable.official@46dc277917a93cbf601bbcf0d27d00f6feeec0d5","version":"2.0"},"bufferViews":[{"buffer":0,"byteLength":3240,"byteOffset":0},{"buffer":0,"byteLength":4320,"byteOffset":3240},{"buffer":0,"byteLength":3240,"byteOffset":7560},{"buffer":0,"byteLength":2160,"byteOffset":10800},{"buffer":0,"byteLength":1584,"byteOffset":12960},{"buffer":0,"byteLength":948,"byteOffset":14544},{"buffer":0,"byteLength":1264,"byteOffset":15492},{"buffer":0,"byteLength":948,"byteOffset":16756},{"buffer":0,"byteLength":632,"byteOffset":17704},{"buffer":0,"byteLength":288,"byteOffset":18336},{"buffer":0,"byteLength":948,"byteOffset":18624},{"buffer":0,"byteLength":1264,"byteOffset":19572},{"buffer":0,"byteLength":948,"byteOffset":20836},{"buffer":0,"byteLength":632,"byteOffset":21784},{"buffer":0,"byteLength":288,"byteOffset":22416},{"buffer":0,"byteLength":48,"byteOffset":22704},{"buffer":0,"byteLength":64,"byteOffset":22752},{"buffer":0,"byteLength":48,"byteOffset":22816},{"buffer":0,"byteLength":32,"byteOffset":22864},{"buffer":0,"byteLength":24,"byteOffset":22896}],"buffers":[{"byteLength":22920,"uri":"input0.bin"}],"extensionsUsed":["GODOT_single_root"],"images":[{"uri":"textures%2Fcolormap_albedo000.png"},{"uri":"textures%2Fcolormap_albedo002.png"},{"uri":"textures%2Fcolormap_albedo003.png"}],"materials":[{"doubleSided":true,"extensions":{},"name":"colormap","pbrMetallicRoughness":{"baseColorFactor":[0.99999988079071,0.99999988079071,0.99999988079071,1],"baseColorTexture":{"index":0},"metallicFactor":0,"roughnessFactor":1}},{"doubleSided":true,"extensions":{},"name":"colormap2","pbrMetallicRoughness":{"baseColorFactor":[0.99999988079071,0.99999988079071,0.99999988079071,1],"baseColorTexture":{"index":1},"metallicFactor":0,"roughnessFactor":1}},{"doubleSided":true,"extensions":{},"name":"colormap3","pbrMetallicRoughness":{"baseColorFactor":[0.99999988079071,0.99999988079071,0.99999988079071,1],"baseColorTexture":{"index":2},"metallicFactor":0,"roughnessFactor":1}}],"meshes":[{"extras":{"targetNames":[]},"primitives":[{"attributes":{"NORMAL":2,"POSITION":0,"TANGENT":1,"TEXCOORD_0":3},"indices":4,"material":0,"mode":4}]},{"extras":{"targetNames":[]},"primitives":[{"attributes":{"NORMAL":7,"POSITION":5,"TANGENT":6,"TEXCOORD_0":8},"indices":9,"material":1,"mode":4}]},{"extras":{"targetNames":[]},"primitives":[{"attributes":{"NORMAL":12,"POSITION":10,"TANGENT":11,"TEXCOORD_0":13},"indices":14,"material":1,"mode":4}]},{"extras":{"targetNames":[]},"primitives":[{"attributes":{"NORMAL":17,"POSITION":15,"TANGENT":16,"TEXCOORD_0":18},"indices":19,"material":2,"mode":4}]}],"nodes":[{"children":[1,3,5,7],"extensions":{},"name":"source"},{"children":[2],"extensions":{},"name":"cover-stripe-hopper2"},{"extensions":{},"mesh":0,"name":"cover-stripe-hopper"},{"children":[4],"extensions":{},"name":"arrow4","rotation":[0.5,0.5,0.5,0.5],"scale":[0.5,0.0500000007450581,0.5],"translation":[0.00794470030814409,0.694692015647888,0.697567999362946]},{"extensions":{},"mesh":1,"name":"arrow"},{"children":[6],"extensions":{},"name":"arrow5","rotation":[0.5,0.5,0.5,0.5],"scale":[0.5,0.0500000007450581,0.5],"translation":[0.00794473011046648,0.694692015647888,-0.7041209936142]},{"extensions":{},"mesh":2,"name":"arrow2"},{"children":[8],"extensions":{},"name":"top2","translation":[0,1.79999995231628,0]},{"extensions":{},"mesh":3,"name":"top"}],"samplers":[{"magFilter":9728,"minFilter":9986,"wrapS":10497,"wrapT":10497}],"scene":0,"scenes":[{"nodes":[0]}],"textures":[{"sampler":0,"source":0},{"sampler":0,"source":1},{"sampler":0,"source":2}]}